<?xml version="1.0" encoding="UTF-8" standalone="no"?>
<!DOCTYPE svg PUBLIC "-//W3C//DTD SVG 1.1//EN" "http://www.w3.org/Graphics/SVG/1.1/DTD/svg11.dtd">
<svg version="1.1" xmlns="http://www.w3.org/2000/svg" xmlns:xlink="http://www.w3.org/1999/xlink" preserveAspectRatio="xMidYMid meet" viewBox="0 0 640 640" width="1024" height="1024"><defs><path d="M640 320C640 496.61 496.61 640 320 640C143.39 640 0 496.61 0 320C0 143.39 143.39 0 320 0C496.61 0 640 143.39 640 320Z" id="c17vARA7FH"></path><path d="M413.04 319.98C413.04 371.32 371.36 413.01 320.02 413.01C268.68 413.01 227 371.32 227 319.98C227 268.64 268.68 226.96 320.02 226.96C371.36 226.96 413.04 268.64 413.04 319.98Z" id="b2gbckh4WX"></path><path d="M191.34 189.74C191.34 230.82 157.99 264.16 116.92 264.16C75.85 264.16 42.5 230.82 42.5 189.74C42.5 148.67 75.85 115.32 116.92 115.32C157.99 115.32 191.34 148.67 191.34 189.74Z" id="a1C265Vr17"></path><path d="M264.21 523.76C264.21 564.83 230.86 598.18 189.79 598.18C148.71 598.18 115.37 564.83 115.37 523.76C115.37 482.69 148.71 449.34 189.79 449.34C230.86 449.34 264.21 482.69 264.21 523.76Z" id="gEbDgNoqf"></path><path d="M524.65 523.77C524.65 564.84 491.31 598.19 450.23 598.19C409.16 598.19 375.81 564.84 375.81 523.77C375.81 482.7 409.16 449.35 450.23 449.35C491.31 449.35 524.65 482.7 524.65 523.77Z" id="f1qOUn9sit"></path><path d="M598.23 189.74C598.23 230.82 564.88 264.16 523.81 264.16C482.74 264.16 449.39 230.82 449.39 189.74C449.39 148.67 482.74 115.32 523.81 115.32C564.88 115.32 598.23 148.67 598.23 189.74Z" id="j1ohwjGcFH"></path></defs><g><g><g><use xlink:href="#c17vARA7FH" opacity="1" fill="#000000" fill-opacity="1"></use></g><g><use xlink:href="#b2gbckh4WX" opacity="1" fill="#e6d000" fill-opacity="1"></use></g><g><use xlink:href="#a1C265Vr17" opacity="1" fill="#1fdd00" fill-opacity="1"></use></g><g><use xlink:href="#gEbDgNoqf" opacity="1" fill="#d817c4" fill-opacity="1"></use></g><g><use xlink:href="#f1qOUn9sit" opacity="1" fill="#1fdd00" fill-opacity="1"></use></g><g><use xlink:href="#j1ohwjGcFH" opacity="1" fill="#1fdd00" fill-opacity="1"></use></g></g></g></svg>