<?xml version="1.0" encoding="UTF-8" standalone="no"?>
<!DOCTYPE svg PUBLIC "-//W3C//DTD SVG 1.1//EN" "http://www.w3.org/Graphics/SVG/1.1/DTD/svg11.dtd">
<svg version="1.1" xmlns="http://www.w3.org/2000/svg" xmlns:xlink="http://www.w3.org/1999/xlink" preserveAspectRatio="xMidYMid meet" viewBox="0 0 1024 1024" width="1024" height="1024"><defs><path d="M1024 512C1024 794.58 794.58 1024 512 1024C229.42 1024 0 794.58 0 512C0 229.42 229.42 0 512 0C794.58 0 1024 229.42 1024 512Z" id="a3AgpAzOQX"></path><path d="M660.22 511.97C660.22 593.78 593.8 660.2 511.99 660.2C430.17 660.2 363.75 593.78 363.75 511.97C363.75 430.16 430.17 363.73 511.99 363.73C593.8 363.73 660.22 430.16 660.22 511.97Z" id="daHsBHCPy"></path><path d="M305.83 304.44C305.83 369.89 252.69 423.03 187.24 423.03C121.79 423.03 68.65 369.89 68.65 304.44C68.65 238.99 121.79 185.85 187.24 185.85C252.69 185.85 305.83 238.99 305.83 304.44Z" id="aXoqUpiFo"></path><path d="M955.33 304.44C955.33 369.89 902.19 423.03 836.74 423.03C771.29 423.03 718.15 369.89 718.15 304.44C718.15 238.99 771.29 185.85 836.74 185.85C902.19 185.85 955.33 238.99 955.33 304.44Z" id="a4ogqJZ2Do"></path><path d="M423.05 836.72C423.05 902.17 369.92 955.31 304.47 955.31C239.02 955.31 185.88 902.17 185.88 836.72C185.88 771.27 239.02 718.14 304.47 718.14C369.92 718.14 423.05 771.27 423.05 836.72Z" id="c1KSiGzfzv"></path><path d="M838.13 836.72C838.13 902.18 785 955.31 719.54 955.31C654.09 955.31 600.96 902.18 600.96 836.72C600.96 771.27 654.09 718.14 719.54 718.14C785 718.14 838.13 771.27 838.13 836.72Z" id="i57j0xvMpu"></path></defs><g><g><g><use xlink:href="#a3AgpAzOQX" opacity="1" fill="#000000" fill-opacity="1"></use></g><g><use xlink:href="#daHsBHCPy" opacity="1" fill="#0024de" fill-opacity="1"></use></g><g><use xlink:href="#aXoqUpiFo" opacity="1" fill="#ff00de" fill-opacity="1"></use></g><g><use xlink:href="#a4ogqJZ2Do" opacity="1" fill="#ff00de" fill-opacity="1"></use></g><g><use xlink:href="#c1KSiGzfzv" opacity="1" fill="#ff00de" fill-opacity="1"></use></g><g><use xlink:href="#i57j0xvMpu" opacity="1" fill="#ff00de" fill-opacity="1"></use></g></g></g></svg>